<svg width="80" height="80" fill="none" xmlns="http://www.w3.org/2000/svg"><path fill-rule="evenodd" clip-rule="evenodd" d="M.015 57.38c11.978-5.9 17.966-12.833 17.966-20.799-5.105-.59-9.326-2.68-12.664-6.269C1.978 26.723.31 22.568.31 17.848c0-5.015 1.62-9.243 4.86-12.685S12.482 0 17.391 0c5.498 0 10.26 2.237 14.285 6.711 4.025 4.475 6.038 9.908 6.038 16.3C37.714 42.187 27.013 57.183 5.61 68L.015 57.38zm42.27 0c12.076-5.9 18.114-12.833 18.114-20.799-5.204-.59-9.475-2.68-12.813-6.269-3.338-3.589-5.007-7.744-5.007-12.464 0-5.015 1.645-9.243 4.934-12.685S54.9 0 59.809 0c5.498 0 10.235 2.237 14.212 6.711 3.976 4.475 5.964 9.908 5.964 16.3 0 19.176-10.652 34.172-31.957 44.989l-5.743-10.62z" fill="#fff"/></svg>